HIERARCHY
ROOT Hips
{
 OFFSET 0.000000 0.000000 0.000000
 CHANNELS 6 Xposition Yposition Zposition Yrotation Xrotation Zrotation
 JOINT Chest
 {
  OFFSET 0.000000 9.585900 0.002600
  CHANNELS 3 Yrotation Xrotation Zrotation
  JOINT Chest2
  {
   OFFSET 0.000000 9.601200 -0.005300
   CHANNELS 3 Yrotation Xrotation Zrotation
   JOINT Chest3
   {
    OFFSET 0.000000 9.561800 0.000000
    CHANNELS 3 Yrotation Xrotation Zrotation
    JOINT Chest4
    {
     OFFSET 0.000000 9.552100 0.000000
     CHANNELS 3 Yrotation Xrotation Zrotation
     JOINT Neck
     {
      OFFSET 0.000000 14.453000 0.000000
      CHANNELS 3 Yrotation Xrotation Zrotation
      JOINT Head
      {
       OFFSET 0.000000 8.936500 -0.011300
       CHANNELS 3 Yrotation Xrotation Zrotation
       End Site
       {
        OFFSET 0.000000 17.073600 -0.006000
       }
      }
     }
     JOINT RightCollar
     {
      OFFSET -2.921100 9.558500 0.000000
      CHANNELS 3 Yrotation Xrotation Zrotation
      JOINT RightShoulder
      {
       OFFSET -13.519700 0.000000 0.000000
       CHANNELS 3 Yrotation Xrotation Zrotation
       JOINT RightElbow
       {
        OFFSET 0.000000 -29.696600 0.000000
        CHANNELS 3 Yrotation Xrotation Zrotation
        JOINT RightWrist
        {
         OFFSET 0.000000 -24.004700 0.000000
         CHANNELS 3 Yrotation Xrotation Zrotation
         End Site
         {
          OFFSET 0.000000 -17.728500 0.000000
         }
        }
       }
      }
     }
     JOINT LeftCollar
     {
      OFFSET 2.921100 9.558500 0.000000
      CHANNELS 3 Yrotation Xrotation Zrotation
      JOINT LeftShoulder
      {
       OFFSET 13.519700 0.000000 0.000000
       CHANNELS 3 Yrotation Xrotation Zrotation
       JOINT LeftElbow
       {
        OFFSET 0.000000 -29.696600 0.000000
        CHANNELS 3 Yrotation Xrotation Zrotation
        JOINT LeftWrist
        {
         OFFSET 0.000000 -24.004700 0.000000
         CHANNELS 3 Yrotation Xrotation Zrotation
         End Site
         {
          OFFSET 0.000000 -17.728500 0.000000
         }
        }
       }
      }
     }
    }
   }
  }
 }
 JOINT RightHip
 {
  OFFSET -7.771700 -0.012900 -0.001300
  CHANNELS 3 Yrotation Xrotation Zrotation
  JOINT RightKnee
  {
   OFFSET 0.000000 -40.869800 0.001200
   CHANNELS 3 Yrotation Xrotation Zrotation
   JOINT RightAnkle
   {
    OFFSET 0.000000 -39.717900 0.002100
    CHANNELS 3 Yrotation Xrotation Zrotation
    JOINT RightToe
    {
     OFFSET 0.000000 -4.965400 11.033500
     CHANNELS 3 Yrotation Xrotation Zrotation
     End Site
     {
      OFFSET 0.000000 -1.423100 5.872300
     }
    }
   }
  }
 }
 JOINT LeftHip
 {
  OFFSET 7.771700 -0.012900 -0.001300
  CHANNELS 3 Yrotation Xrotation Zrotation
  JOINT LeftKnee
  {
   OFFSET 0.000000 -40.869800 0.001200
   CHANNELS 3 Yrotation Xrotation Zrotation
   JOINT LeftAnkle
   {
    OFFSET 0.000000 -39.717900 0.002100
    CHANNELS 3 Yrotation Xrotation Zrotation
    JOINT LeftToe
    {
     OFFSET 0.000000 -4.965400 11.033500
     CHANNELS 3 Yrotation Xrotation Zrotation
     End Site
     {
      OFFSET 0.000000 -1.423100 5.872300
     }
    }
   }
  }
 }
}
MOTION
Frames: 11
Frame Time: 0.008333
0.000000 85.388000 0.000000 0.000000 -5.767877 0.000000 0.000000 11.653817 0.000000 0.000000 -5.885947 0.000000 0.000000 -0.000000 0.000000 0.000000 -0.000000 0.000000 0.000000 12.528835 0.000000 0.000000 0.711642 0.000000 0.000000 -0.000000 0.000000 0.000000 0.000000 -90.000000 0.000000 -2.309062 0.000000 0.000000 2.309062 0.000000 0.000000 -0.000000 0.000000 0.000000 -0.000000 90.000000 0.000000 -2.309062 0.000000 0.000000 2.309062 0.000000 0.000000 8.520406 0.000000 0.000000 1.905762 0.000000 -0.000000 -4.658285 0.000000 0.000000 -0.000000 0.000000 0.000000 8.520406 0.000000 0.000000 1.905762 0.000000 -0.000000 -4.658285 0.000000 0.000000 -0.000000 0.000000
-147.764568 49.193824 18.942215 176.479261 -32.938450 -3.309340 -0.614894 20.512748 3.290606 -0.162800 2.666687 0.390111 -0.200100 4.287672 0.595306 -0.601676 17.545348 2.430857 4.369687 16.322954 -2.151920 8.862427 -5.190111 -5.522253 -0.322497 -4.256252 -4.103380 6.233618 -8.499179 -13.045463 -46.206962 -50.935357 98.058675 4.830498 7.535630 -16.889581 -0.760421 -3.449911 2.482309 -7.383103 -2.937847 11.892878 124.439832 -76.864702 -158.369271 1.557249 9.938595 10.297273 -4.469580 -51.760561 -7.855593 -143.668247 81.841932 -131.005009 -30.559351 -2.970281 -4.241321 -0.114562 -12.463143 0.846103 -11.373122 -53.871823 17.505857 -72.903284 64.703030 -78.384695 30.860772 7.173601 17.282585 0.044265 -0.427680 0.019661
-147.765064 49.193846 18.944494 176.471460 -32.934920 -3.321499 -0.590703 20.495375 3.303869 -0.150909 2.647833 0.382669 -0.182028 4.259608 0.587646 -0.581549 17.533373 2.441008 4.469293 16.312187 -2.158431 9.050206 -5.200699 -5.569725 -0.375207 -4.160986 -4.074744 6.218730 -8.523382 -13.035753 -46.171425 -50.948080 98.017541 4.825940 7.524357 -16.870013 -0.773431 -3.387491 2.492989 -7.445179 -2.995395 11.961548 124.434531 -76.873953 -158.330393 1.599924 10.046693 10.131931 -4.475854 -51.761832 -7.840127 -143.666689 81.840157 -131.002105 -30.495808 -2.966332 -4.260085 -0.138757 -12.461576 0.857426 -11.383767 -53.877127 17.520183 -72.918639 64.714993 -78.389134 30.863864 7.168633 17.279130 0.038831 -0.426288 0.016758
-147.766294 49.195017 18.945593 176.479691 -32.940924 -3.340293 -0.578721 20.487424 3.314757 -0.110617 2.594179 0.358434 -0.196365 4.272247 0.601466 -0.553912 17.508707 2.445395 4.603486 16.305958 -2.163761 9.301198 -5.199742 -5.626643 -0.434992 -4.068025 -4.040666 6.198632 -8.541865 -13.029914 -46.129558 -50.966783 97.970265 4.813692 7.508917 -16.839925 -0.790343 -3.301127 2.514059 -7.515598 -3.083799 12.031953 124.607321 -76.896575 -158.429032 1.657174 10.200026 9.862101 -4.489953 -51.751543 -7.824460 -143.608324 81.836075 -130.937922 -30.500320 -2.966596 -4.246775 -0.147021 -12.459960 0.848862 -11.403695 -53.873034 17.530863 -72.932926 64.723406 -78.395474 30.868791 7.166147 17.275469 0.034097 -0.426102 0.016139
-147.771816 49.196604 18.946081 176.495328 -32.950408 -3.338727 -0.545233 20.434683 3.287530 -0.117475 2.598527 0.367958 -0.196144 4.268076 0.606150 -0.525529 17.483346 2.449345 4.772023 16.304274 -2.168575 9.615212 -5.186954 -5.693801 -0.500137 -3.979280 -4.003247 6.169757 -8.556319 -13.030487 -46.092791 -50.972469 97.949500 4.821448 7.497832 -16.813960 -0.833120 -3.209057 2.546054 -7.569676 -3.184714 12.096656 125.047270 -76.939715 -158.734622 1.712242 10.408238 9.429473 -4.474045 -51.739119 -7.856099 -143.498158 81.828916 -130.814375 -30.543738 -2.971093 -4.221694 -0.111940 -12.456514 0.825928 -11.403153 -53.870717 17.494734 -72.937997 64.737857 -78.393931 30.882470 7.177770 17.275389 0.027345 -0.438556 0.011062
-147.773622 49.198304 18.947756 176.506568 -32.956378 -3.357565 -0.506736 20.388195 3.293946 -0.141152 2.625114 0.380664 -0.192499 4.260795 0.605569 -0.476443 17.424953 2.439136 4.973701 16.306224 -2.171636 9.989822 -5.164148 -5.768572 -0.562702 -3.870083 -3.962898 6.121330 -8.592251 -13.036828 -46.040638 -51.018327 97.877481 4.832620 7.441457 -16.679891 -0.879442 -3.106444 2.582029 -7.621043 -3.305181 12.159466 125.831744 -77.003666 -159.307195 1.725351 10.676039 8.763699 -4.456316 -51.721073 -7.868673 -143.421160 81.831155 -130.711188 -30.545471 -2.974432 -4.217827 -0.125420 -12.448195 0.825741 -11.431207 -53.863088 17.508081 -72.940230 64.738673 -78.388772 30.883387 7.181464 17.269078 0.030914 -0.438239 0.008832
-147.774294 49.200697 18.949216 176.511060 -32.967010 -3.378474 -0.484514 20.375573 3.310759 -0.139907 2.621273 0.379396 -0.150655 4.202322 0.589495 -0.455502 17.418726 2.448759 5.207301 16.311814 -2.173355 10.422738 -5.131214 -5.851511 -0.627106 -3.771794 -3.915417 6.062274 -8.618909 -13.048245 -45.982393 -51.097795 97.775633 4.819518 7.367200 -16.512687 -0.872371 -2.934492 2.591425 -7.717900 -3.504351 12.252444 127.046970 -77.081416 -160.211958 1.644455 10.982415 7.780960 -4.463496 -51.702839 -7.853111 -143.359398 81.835137 -130.638220 -30.546474 -2.969182 -4.219382 -0.094048 -12.448542 0.818998 -11.457905 -53.849139 17.533235 -72.950745 64.734251 -78.392130 30.875234 7.181021 17.260713 0.033911 -0.435945 0.010103
-147.775571 49.203443 18.950517 176.511853 -32.980185 -3.391990 -0.460034 20.364320 3.322975 -0.082253 2.547779 0.358487 -0.161974 4.214116 0.597857 -0.433954 17.413405 2.458263 5.470327 16.322249 -2.175551 10.909688 -5.085695 -5.944820 -0.663671 -3.699342 -3.865200 5.962669 -8.616235 -13.060680 -45.922475 -51.203008 97.657950 4.821095 7.266917 -16.291610 -0.896611 -2.778006 2.596195 -7.772704 -3.694843 12.337694 128.829172 -77.162233 -161.555379 1.401499 11.321565 6.387468 -4.466075 -51.683811 -7.844261 -143.291975 81.836010 -130.564818 -30.519768 -2.960114 -4.233626 -0.101291 -12.450895 0.828327 -11.479783 -53.834946 17.545706 -72.959122 64.739329 -78.398215 30.880743 7.181853 17.263039 0.027828 -0.439584 0.003733
-147.777849 49.206333 18.951640 176.511444 -32.994986 -3.396798 -0.415679 20.328313 3.326738 -0.068001 2.528315 0.355890 -0.164942 4.215702 0.601240 -0.400644 17.391399 2.461206 5.760609 16.337063 -2.178683 11.446880 -5.028298 -6.048313 -0.737219 -3.617719 -3.822830 5.877420 -8.622934 -13.056685 -45.865813 -51.363510 97.515575 4.824330 7.144145 -15.995383 -0.934701 -2.647151 2.590657 -7.785517 -3.866161 12.414568 131.390174 -77.227515 -163.528042 0.927121 11.735711 4.496537 -4.462738 -51.666980 -7.842841 -143.227649 81.840563 -130.500118 -30.517765 -2.941691 -4.232743 -0.113078 -12.459425 0.828557 -11.497627 -53.817199 17.552092 -72.950301 64.746727 -78.396428 30.883826 7.183291 17.270361 0.018712 -0.443858 -0.002684
-147.779426 49.210177 18.951416 176.517663 -33.019614 -3.407014 -0.378927 20.305018 3.335116 -0.084407 2.548303 0.360826 -0.135554 4.178927 0.591320 -0.367178 17.369632 2.463727 6.075697 16.354295 -2.183192 12.030188 -4.962496 -6.162098 -0.781664 -3.564408 -3.766407 5.737806 -8.596348 -13.048242 -45.820816 -51.617029 97.351756 4.832416 7.010895 -15.622598 -0.974501 -2.536061 2.574980 -7.733782 -4.031654 12.490755 134.896536 -77.250863 -166.317942 0.204486 12.222892 2.078945 -4.465995 -51.638267 -7.837486 -143.198765 81.842363 -130.468321 -30.520397 -2.935966 -4.232932 -0.109167 -12.462899 0.829004 -11.525529 -53.788670 17.560005 -72.945031 64.749173 -78.394779 30.893453 7.191002 17.265487 0.011447 -0.452091 -0.002647
-147.783120 49.212703 18.952632 176.521987 -33.031928 -3.402558 -0.345987 20.272922 3.327044 -0.100778 2.565486 0.367296 -0.107428 4.144412 0.580520 -0.335140 17.348165 2.466734 6.412277 16.371406 -2.190853 12.654181 -4.892852 -6.288489 -0.790270 -3.575015 -3.673630 5.542776 -8.496978 -13.051577 -45.799251 -51.995340 97.161985 4.873445 6.872934 -15.174711 -1.009950 -2.444825 2.555449 -7.576540 -4.205572 12.571056 139.281112 -77.196261 -169.926532 -0.737062 12.727624 -0.818881 -4.454484 -51.623784 -7.846083 -143.177002 81.855015 -130.449597 -30.541829 -2.932409 -4.233949 -0.104280 -12.457599 0.833716 -11.557873 -53.768715 17.550756 -72.910932 64.764055 -78.373128 30.920957 7.191003 17.268815 -0.010198 -0.454835 -0.012660
